<svg width="266" height="52" viewBox="0 0 266 52" fill="none" xmlns="http://www.w3.org/2000/svg">
<path d="M57.7937 29.2357V24.9571H63.8119C65.336 24.9571 66.6696 24.6271 67.8127 23.967C68.9558 23.2835 69.8412 22.3287 70.4688 21.1029C71.1187 19.877 71.4438 18.4273 71.4438 16.7536C71.4438 15.127 71.1187 13.7126 70.4688 12.5104C69.8188 11.2846 68.9222 10.3417 67.7791 9.68161C66.636 8.99802 65.3136 8.65617 63.8119 8.65617H57.6929V4.37761H63.8791C65.6274 4.37761 67.2412 4.6841 68.7205 5.29697C70.2223 5.90984 71.5222 6.78209 72.6205 7.91361C73.7412 9.02152 74.6041 10.3298 75.2093 11.8386C75.8369 13.3473 76.1507 14.9974 76.1507 16.789C76.1507 18.5806 75.8369 20.2425 75.2093 21.7747C74.6041 23.2835 73.7524 24.6035 72.6541 25.735C71.5558 26.843 70.2559 27.7035 68.7541 28.3163C67.2748 28.9292 65.6722 29.2357 63.9463 29.2357H57.7937ZM54.667 29.2357V4.37761H59.2394V29.2357H54.667ZM79.3134 29.2357V12.1568H83.7178V29.2357H79.3134ZM83.7178 19.7946L82.0031 18.5923C82.2048 16.4943 82.7875 14.8442 83.7514 13.6419C84.7152 12.4161 86.1048 11.8032 87.9204 11.8032C88.7048 11.8032 89.4108 11.9446 90.0385 12.2275C90.6661 12.4868 91.2376 12.923 91.7531 13.5358L88.9962 16.8597C88.7497 16.5768 88.4471 16.3647 88.0885 16.2232C87.7522 16.0818 87.36 16.011 86.9117 16.011C85.9703 16.011 85.1971 16.3293 84.5919 16.9658C84.0092 17.5786 83.7178 18.5216 83.7178 19.7946ZM94.2904 29.5893C93.4835 29.5893 92.8224 29.3064 92.3068 28.7406C91.7913 28.1749 91.5335 27.4794 91.5335 26.6544C91.5335 25.8294 91.7913 25.1339 92.3068 24.5682C92.8224 24.0024 93.4835 23.7195 94.2904 23.7195C95.075 23.7195 95.7249 24.0024 96.2404 24.5682C96.756 25.1339 97.0137 25.8294 97.0137 26.6544C97.0137 27.4794 96.756 28.1749 96.2404 28.7406C95.7249 29.3064 95.075 29.5893 94.2904 29.5893ZM105.013 20.0067V16.0818H110.493C111.21 16.0818 111.86 15.9286 112.443 15.6221C113.026 15.3156 113.486 14.8795 113.822 14.3138C114.158 13.7244 114.326 13.0172 114.326 12.1922C114.326 11.3906 114.158 10.6953 113.822 10.1059C113.486 9.51656 113.026 9.06874 112.443 8.76225C111.86 8.45576 111.21 8.30257 110.493 8.30257H105.013V4.37761H110.964C112.465 4.37761 113.81 4.69585 114.999 5.33233C116.209 5.96881 117.161 6.87642 117.856 8.05505C118.551 9.21018 118.899 10.5892 118.899 12.1922C118.899 13.7951 118.551 15.186 117.856 16.3647C117.161 17.5198 116.209 18.4155 114.999 19.052C113.81 19.6885 112.465 20.0067 110.964 20.0067H105.013ZM101.651 29.2357V4.37761H106.224V29.2357H101.651ZM132.825 29.2357V19.441C132.825 18.4273 132.522 17.6022 131.917 16.9658C131.312 16.3293 130.527 16.011 129.563 16.011C128.935 16.011 128.376 16.1525 127.882 16.4354C127.389 16.7182 126.997 17.119 126.706 17.6376C126.437 18.1563 126.302 18.7574 126.302 19.441L124.587 18.5216C124.587 17.1779 124.856 16.0111 125.394 15.021C125.932 14.0073 126.672 13.2176 127.613 12.6519C128.577 12.0861 129.675 11.8032 130.908 11.8032C132.141 11.8032 133.228 12.0861 134.169 12.6519C135.133 13.2176 135.884 13.9955 136.422 14.9856C136.96 15.9757 137.229 17.119 137.229 18.4155V29.2357H132.825ZM121.898 29.2357V3.67041H126.302V29.2357H121.898ZM147.568 29.5893C146.089 29.5893 144.755 29.2003 143.567 28.4224C142.379 27.6445 141.449 26.5837 140.777 25.24C140.104 23.8963 139.768 22.3876 139.768 20.7139C139.768 19.0167 140.104 17.4962 140.777 16.1525C141.449 14.8088 142.379 13.748 143.567 12.9701C144.755 12.1922 146.089 11.8032 147.568 11.8032C148.733 11.8032 149.775 12.0507 150.695 12.5458C151.614 13.0408 152.342 13.7363 152.88 14.632C153.44 15.5043 153.743 16.4943 153.788 17.6022V23.7549C153.743 24.8864 153.44 25.8882 152.88 26.7605C152.342 27.6327 151.614 28.3281 150.695 28.8467C149.775 29.3418 148.733 29.5893 147.568 29.5893ZM148.375 25.3107C149.607 25.3107 150.605 24.8864 151.367 24.0378C152.129 23.1655 152.511 22.0459 152.511 20.6786C152.511 19.7828 152.331 18.993 151.973 18.3094C151.636 17.6022 151.154 17.0601 150.527 16.6829C149.922 16.2822 149.204 16.0818 148.375 16.0818C147.568 16.0818 146.85 16.2822 146.223 16.6829C145.618 17.0601 145.136 17.6022 144.778 18.3094C144.441 18.993 144.273 19.7828 144.273 20.6786C144.273 21.5979 144.441 22.4112 144.778 23.1184C145.136 23.802 145.618 24.3443 146.223 24.745C146.85 25.1222 147.568 25.3107 148.375 25.3107ZM152.275 29.2357V24.6389L152.981 20.4664L152.275 16.3647V12.1568H156.646V29.2357H152.275ZM160.542 29.2357V12.1568H164.946V29.2357H160.542ZM164.946 19.7946L163.232 18.5923C163.433 16.4943 164.016 14.8442 164.98 13.6419C165.944 12.4161 167.333 11.8032 169.149 11.8032C169.933 11.8032 170.639 11.9446 171.267 12.2275C171.895 12.4868 172.466 12.923 172.982 13.5358L170.225 16.8597C169.978 16.5768 169.676 16.3647 169.317 16.2232C168.981 16.0818 168.588 16.011 168.14 16.011C167.199 16.011 166.426 16.3293 165.82 16.9658C165.238 17.5786 164.946 18.5216 164.946 19.7946ZM174.463 29.2357V12.1568H178.867V29.2357H174.463ZM185.053 29.2357V19.1581C185.053 18.168 184.751 17.4018 184.146 16.8597C183.563 16.2939 182.835 16.011 181.96 16.011C181.378 16.011 180.851 16.1407 180.38 16.4C179.909 16.6358 179.54 16.9894 179.271 17.4608C179.002 17.9322 178.867 18.498 178.867 19.1581L177.153 18.2741C177.153 16.954 177.422 15.8106 177.959 14.8442C178.52 13.8777 179.271 13.1351 180.212 12.6165C181.153 12.0743 182.218 11.8032 183.406 11.8032C184.526 11.8032 185.547 12.0743 186.466 12.6165C187.384 13.1351 188.113 13.8777 188.651 14.8442C189.189 15.7871 189.458 16.9304 189.458 18.2741V29.2357H185.053ZM195.644 29.2357V19.1581C195.644 18.168 195.341 17.4018 194.736 16.8597C194.154 16.2939 193.425 16.011 192.551 16.011C191.99 16.011 191.464 16.1407 190.971 16.4C190.5 16.6358 190.13 16.9894 189.861 17.4608C189.592 17.9322 189.458 18.498 189.458 19.1581L186.936 18.5216C187.026 17.1543 187.373 15.9757 187.978 14.9856C188.584 13.9719 189.38 13.194 190.366 12.6519C191.351 12.0861 192.45 11.8032 193.66 11.8032C194.871 11.8032 195.958 12.0743 196.922 12.6165C197.886 13.1351 198.647 13.8894 199.208 14.8795C199.769 15.8696 200.048 17.0482 200.048 18.4155V29.2357H195.644ZM211.385 29.5893C209.682 29.5893 208.169 29.2121 206.846 28.4578C205.524 27.6798 204.47 26.6191 203.685 25.2754C202.924 23.9317 202.542 22.3995 202.542 20.6786C202.542 18.9813 202.912 17.4726 203.652 16.1525C204.414 14.8088 205.445 13.748 206.745 12.9701C208.045 12.1686 209.491 11.7679 211.082 11.7679C212.651 11.7679 214.03 12.1451 215.217 12.8994C216.428 13.6302 217.369 14.6438 218.041 15.9403C218.737 17.2133 219.084 18.6631 219.084 20.2896C219.084 20.5961 219.062 20.9143 219.016 21.2443C218.995 21.5508 218.938 21.9044 218.848 22.3051L205.198 22.3405V18.8752L216.797 18.8398L215.016 20.2896C214.971 19.2759 214.792 18.4273 214.478 17.7437C214.187 17.0601 213.75 16.5414 213.166 16.1878C212.607 15.8106 211.912 15.6221 211.082 15.6221C210.208 15.6221 209.446 15.8342 208.796 16.2586C208.146 16.6593 207.642 17.2369 207.283 17.9912C206.947 18.722 206.778 19.5942 206.778 20.6078C206.778 21.645 206.958 22.5526 207.316 23.3306C207.698 24.0849 208.236 24.6742 208.93 25.0986C209.625 25.4993 210.432 25.6997 211.351 25.6997C212.181 25.6997 212.931 25.5583 213.603 25.2754C214.276 24.9689 214.859 24.5211 215.352 23.9317L217.941 26.6544C217.156 27.6209 216.192 28.3517 215.049 28.8467C213.929 29.3418 212.708 29.5893 211.385 29.5893ZM228.667 29.5893C227.165 29.5893 225.82 29.2003 224.632 28.4224C223.444 27.6445 222.503 26.5837 221.808 25.24C221.136 23.8963 220.799 22.3876 220.799 20.7139C220.799 19.0167 221.136 17.4962 221.808 16.1525C222.503 14.8088 223.433 13.748 224.598 12.9701C225.786 12.1922 227.143 11.8032 228.667 11.8032C229.832 11.8032 230.875 12.0507 231.793 12.5458C232.735 13.0408 233.485 13.7363 234.046 14.632C234.628 15.5043 234.943 16.4943 234.987 17.6022V23.6842C234.943 24.7921 234.64 25.794 234.08 26.6898C233.519 27.5855 232.768 28.2927 231.827 28.8114C230.886 29.33 229.832 29.5893 228.667 29.5893ZM229.406 25.3107C230.236 25.3107 230.953 25.1222 231.558 24.745C232.186 24.3443 232.667 23.802 233.004 23.1184C233.363 22.4112 233.542 21.5979 233.542 20.6786C233.542 19.7828 233.363 18.993 233.004 18.3094C232.667 17.6022 232.186 17.0601 231.558 16.6829C230.953 16.2822 230.247 16.0818 229.44 16.0818C228.61 16.0818 227.882 16.2822 227.255 16.6829C226.649 17.0836 226.168 17.6259 225.809 18.3094C225.473 18.993 225.305 19.7828 225.305 20.6786C225.305 21.5979 225.473 22.4112 225.809 23.1184C226.168 23.802 226.66 24.3443 227.288 24.745C227.916 25.1222 228.622 25.3107 229.406 25.3107ZM237.677 29.2357H233.306V24.6389L234.012 20.4664L233.273 16.3647V3.67041H237.677V29.2357ZM241.573 29.2357V12.1568H246.011V29.2357H241.573ZM243.792 9.39873C243.075 9.39873 242.481 9.15121 242.01 8.65617C241.539 8.13752 241.304 7.50104 241.304 6.74673C241.304 6.01592 241.539 5.3913 242.01 4.87265C242.481 4.354 243.075 4.09473 243.792 4.09473C244.532 4.09473 245.126 4.354 245.574 4.87265C246.045 5.3913 246.28 6.01592 246.28 6.74673C246.28 7.50104 246.045 8.13752 245.574 8.65617C245.126 9.15121 244.532 9.39873 243.792 9.39873ZM257.579 29.5893C255.919 29.5893 254.429 29.2003 253.107 28.4224C251.784 27.6445 250.742 26.5837 249.98 25.24C249.218 23.8963 248.837 22.3876 248.837 20.7139C248.837 19.0167 249.218 17.4962 249.98 16.1525C250.742 14.8088 251.784 13.748 253.107 12.9701C254.452 12.1686 255.942 11.7679 257.579 11.7679C258.856 11.7679 260.033 12.0154 261.109 12.5104C262.185 13.0054 263.114 13.7126 263.899 14.632L261.075 17.6376C260.649 17.1426 260.134 16.7654 259.529 16.5061C258.945 16.2468 258.295 16.1171 257.579 16.1171C256.772 16.1171 256.043 16.3175 255.393 16.7183C254.765 17.0955 254.261 17.6259 253.88 18.3094C253.521 18.9695 253.342 19.7592 253.342 20.6786C253.342 21.5743 253.521 22.3758 253.88 23.083C254.261 23.7666 254.765 24.3089 255.393 24.7096C256.043 25.0868 256.772 25.2754 257.579 25.2754C258.318 25.2754 258.979 25.1457 259.562 24.8864C260.167 24.6035 260.683 24.2028 261.109 23.6842L263.966 26.6898C263.137 27.6327 262.185 28.3517 261.109 28.8467C260.033 29.3418 258.856 29.5893 257.579 29.5893Z" fill="#000B6D"/>
<mask id="mask0_115140_86" style="mask-type:luminance" maskUnits="userSpaceOnUse" x="0" y="0" width="53" height="52">
<path d="M52.4089 0H0V52H52.4089V0Z" fill="white"/>
</mask>
<g mask="url(#mask0_115140_86)">
<path d="M39.6156 52H6.86003C5.9913 52 5.15814 51.6576 4.54386 51.0481C3.92957 50.4386 3.58447 49.612 3.58447 48.75V43.3334C3.60344 39.1487 4.96968 35.0797 7.48383 31.7198C9.99804 28.36 13.5285 25.8853 17.5602 24.6567L18.8704 28.8058C15.7251 29.7524 12.968 31.6736 11.0032 34.288C9.03833 36.9023 7.969 40.0722 7.95189 43.3334V47.6667H38.5237V43.3334C38.5395 40.0779 37.4931 36.9047 35.5409 34.2882C33.5886 31.6716 30.8353 29.7521 27.6926 28.8167L28.9591 24.6676C33.001 25.8697 36.5422 28.3374 39.0533 31.7019C41.5645 35.0663 42.9109 39.1467 42.8912 43.3334V48.75C42.8912 49.612 42.5461 50.4386 41.9318 51.0481C41.3175 51.6576 40.4843 52 39.6156 52Z" fill="#5F6FFF" stroke="#5F6FFF" stroke-width="1.33333"/>
<path d="M23.2374 30.3334H22.4294C19.3444 30.081 16.4713 28.6751 14.3915 26.4003C12.3116 24.1256 11.1805 21.1518 11.227 18.0808V3.25C11.227 2.38805 11.5721 1.56139 12.1863 0.951903C12.8007 0.34241 13.6338 0 14.5025 0H31.9722C32.8409 0 33.6741 0.34241 34.2884 0.951903C34.9026 1.56139 35.2478 2.38805 35.2478 3.25V18.4166C35.2436 20.042 34.9043 21.6493 34.2509 23.1397C33.5975 24.6301 32.6436 25.9722 31.4481 27.0834C29.2339 29.1734 26.2935 30.3372 23.2374 30.3334ZM15.5944 4.33334V18.0808C15.5503 20.0515 16.262 21.9653 17.5855 23.4354C18.909 24.9054 20.7456 25.8221 22.7242 26C23.7702 26.0699 24.8195 25.9254 25.8068 25.5757C26.7942 25.226 27.6985 24.6785 28.4635 23.9672C29.2284 23.256 29.8378 22.3962 30.2536 21.4413C30.6694 20.4864 30.8827 19.4568 30.8803 18.4166V4.33334H15.5944Z" fill="#5F6FFF" stroke="#5F6FFF" stroke-width="1.33333"/>
<path d="M33.0645 10.8333H13.4111V15.1666H33.0645V10.8333Z" fill="#5F6FFF" stroke="#5F6FFF" stroke-width="1.33333"/>
<path d="M17.7783 36.8333V41.1666H28.6969V36.8333H17.7783Z" fill="#5F6FFF" stroke="#5F6FFF" stroke-width="1.33333"/>
<path d="M21.0542 44.4166H25.4216V33.5833H21.0542V44.4166Z" fill="#5F6FFF" stroke="#5F6FFF" stroke-width="1.33333"/>
</g>
<path d="M55.2797 47.2V45.506H57.7857C58.4204 45.506 58.9757 45.3753 59.4517 45.114C59.9277 44.8433 60.2964 44.4653 60.5577 43.98C60.8284 43.4946 60.9637 42.9206 60.9637 42.258C60.9637 41.614 60.8284 41.054 60.5577 40.578C60.2871 40.0926 59.9137 39.7193 59.4377 39.458C58.9617 39.1873 58.4111 39.052 57.7857 39.052H55.2377V37.358H57.8137C58.5417 37.358 59.2137 37.4793 59.8297 37.722C60.4551 37.9646 60.9964 38.31 61.4537 38.758C61.9204 39.1966 62.2797 39.7146 62.5317 40.312C62.7931 40.9093 62.9237 41.5626 62.9237 42.272C62.9237 42.9813 62.7931 43.6393 62.5317 44.246C62.2797 44.8433 61.9251 45.366 61.4677 45.814C61.0104 46.2526 60.4691 46.5933 59.8437 46.836C59.2277 47.0786 58.5604 47.2 57.8417 47.2H55.2797ZM53.9777 47.2V37.358H55.8817V47.2H53.9777ZM67.0687 47.34C66.4527 47.34 65.8974 47.186 65.4027 46.878C64.908 46.57 64.5207 46.15 64.2407 45.618C63.9607 45.086 63.8207 44.4886 63.8207 43.826C63.8207 43.154 63.9607 42.552 64.2407 42.02C64.5207 41.488 64.908 41.068 65.4027 40.76C65.8974 40.452 66.4527 40.298 67.0687 40.298C67.554 40.298 67.988 40.396 68.3707 40.592C68.7534 40.788 69.0567 41.0633 69.2807 41.418C69.514 41.7633 69.64 42.1553 69.6587 42.594V45.03C69.64 45.478 69.514 45.8746 69.2807 46.22C69.0567 46.5653 68.7534 46.8406 68.3707 47.046C67.988 47.242 67.554 47.34 67.0687 47.34ZM67.4047 45.646C67.918 45.646 68.3334 45.478 68.6507 45.142C68.968 44.7966 69.1267 44.3533 69.1267 43.812C69.1267 43.4573 69.052 43.1446 68.9027 42.874C68.7627 42.594 68.562 42.3793 68.3007 42.23C68.0487 42.0713 67.75 41.992 67.4047 41.992C67.0687 41.992 66.77 42.0713 66.5087 42.23C66.2567 42.3793 66.056 42.594 65.9067 42.874C65.7667 43.1446 65.6967 43.4573 65.6967 43.812C65.6967 44.176 65.7667 44.498 65.9067 44.778C66.056 45.0486 66.2567 45.2633 66.5087 45.422C66.77 45.5713 67.0687 45.646 67.4047 45.646ZM69.0287 47.2V45.38L69.3227 43.728L69.0287 42.104V40.438H70.8487V47.2H69.0287ZM74.7952 47.354C74.4125 47.354 74.0345 47.3026 73.6612 47.2C73.2972 47.0973 72.9612 46.9573 72.6532 46.78C72.3452 46.5933 72.0792 46.3693 71.8552 46.108L72.9472 45.002C73.1805 45.2633 73.4512 45.4593 73.7592 45.59C74.0672 45.7206 74.4078 45.786 74.7812 45.786C75.0798 45.786 75.3038 45.744 75.4532 45.66C75.6118 45.576 75.6912 45.45 75.6912 45.282C75.6912 45.0953 75.6072 44.9506 75.4392 44.848C75.2805 44.7453 75.0705 44.6613 74.8092 44.596C74.5478 44.5213 74.2725 44.442 73.9832 44.358C73.7032 44.2646 73.4325 44.148 73.1712 44.008C72.9098 43.8586 72.6952 43.658 72.5272 43.406C72.3685 43.1446 72.2892 42.8086 72.2892 42.398C72.2892 41.9686 72.3918 41.5953 72.5972 41.278C72.8118 40.9606 73.1152 40.7133 73.5072 40.536C73.8992 40.3586 74.3612 40.27 74.8932 40.27C75.4532 40.27 75.9572 40.368 76.4052 40.564C76.8625 40.76 77.2405 41.054 77.5392 41.446L76.4332 42.552C76.2278 42.3 75.9945 42.118 75.7332 42.006C75.4812 41.894 75.2058 41.838 74.9072 41.838C74.6365 41.838 74.4265 41.88 74.2772 41.964C74.1372 42.048 74.0672 42.1646 74.0672 42.314C74.0672 42.482 74.1465 42.6126 74.3052 42.706C74.4732 42.7993 74.6878 42.8833 74.9492 42.958C75.2105 43.0233 75.4812 43.1026 75.7612 43.196C76.0505 43.28 76.3212 43.4013 76.5732 43.56C76.8345 43.7186 77.0445 43.9286 77.2032 44.19C77.3712 44.4513 77.4552 44.7873 77.4552 45.198C77.4552 45.8606 77.2172 46.388 76.7412 46.78C76.2652 47.1626 75.6165 47.354 74.7952 47.354ZM83.2419 47.2V43.322C83.2419 42.9206 83.1159 42.594 82.8639 42.342C82.6119 42.09 82.2852 41.964 81.8839 41.964C81.6225 41.964 81.3892 42.02 81.1839 42.132C80.9785 42.244 80.8152 42.4026 80.6939 42.608C80.5819 42.8133 80.5259 43.0513 80.5259 43.322L79.8119 42.958C79.8119 42.426 79.9239 41.964 80.1479 41.572C80.3719 41.1706 80.6799 40.858 81.0719 40.634C81.4732 40.41 81.9305 40.298 82.4439 40.298C82.9572 40.298 83.4099 40.41 83.8019 40.634C84.2032 40.858 84.5159 41.166 84.7399 41.558C84.9639 41.95 85.0759 42.4026 85.0759 42.916V47.2H83.2419ZM78.6919 47.2V37.078H80.5259V47.2H78.6919ZM90.3052 47.34C89.8199 47.34 89.3812 47.2373 88.9892 47.032C88.5972 46.8266 88.2845 46.5466 88.0512 46.192C87.8179 45.8373 87.6919 45.4406 87.6732 45.002V42.594C87.6919 42.1553 87.8179 41.7633 88.0512 41.418C88.2939 41.0633 88.6112 40.788 89.0032 40.592C89.3952 40.396 89.8292 40.298 90.3052 40.298C90.9305 40.298 91.4905 40.452 91.9852 40.76C92.4799 41.068 92.8672 41.488 93.1472 42.02C93.4365 42.552 93.5812 43.154 93.5812 43.826C93.5812 44.4886 93.4365 45.086 93.1472 45.618C92.8672 46.15 92.4799 46.57 91.9852 46.878C91.4905 47.186 90.9305 47.34 90.3052 47.34ZM86.5532 47.2V37.078H88.3872V42.104L88.0792 43.728L88.3732 45.38V47.2H86.5532ZM89.9972 45.646C90.3332 45.646 90.6272 45.5713 90.8792 45.422C91.1405 45.2633 91.3412 45.0486 91.4812 44.778C91.6305 44.498 91.7052 44.176 91.7052 43.812C91.7052 43.4573 91.6305 43.1446 91.4812 42.874C91.3412 42.594 91.1405 42.3793 90.8792 42.23C90.6179 42.0713 90.3192 41.992 89.9832 41.992C89.6472 41.992 89.3485 42.0713 89.0872 42.23C88.8352 42.3793 88.6345 42.594 88.4852 42.874C88.3452 43.1446 88.2752 43.4573 88.2752 43.812C88.2752 44.176 88.3452 44.498 88.4852 44.778C88.6345 45.0486 88.8399 45.2633 89.1012 45.422C89.3625 45.5713 89.6612 45.646 89.9972 45.646ZM97.9617 47.34C97.2803 47.34 96.6643 47.186 96.1137 46.878C95.5723 46.5606 95.1383 46.136 94.8117 45.604C94.4943 45.0626 94.3357 44.4606 94.3357 43.798C94.3357 43.1353 94.4943 42.5426 94.8117 42.02C95.129 41.488 95.563 41.068 96.1137 40.76C96.6643 40.4426 97.2757 40.284 97.9477 40.284C98.6383 40.284 99.2543 40.4426 99.7957 40.76C100.346 41.068 100.78 41.488 101.098 42.02C101.415 42.5426 101.574 43.1353 101.574 43.798C101.574 44.4606 101.415 45.0626 101.098 45.604C100.78 46.136 100.346 46.5606 99.7957 46.878C99.2543 47.186 98.643 47.34 97.9617 47.34ZM97.9477 45.632C98.293 45.632 98.5963 45.5573 98.8577 45.408C99.1283 45.2493 99.3337 45.0346 99.4737 44.764C99.623 44.484 99.6977 44.1666 99.6977 43.812C99.6977 43.4573 99.623 43.1446 99.4737 42.874C99.3243 42.6033 99.119 42.3933 98.8577 42.244C98.5963 42.0853 98.293 42.006 97.9477 42.006C97.6117 42.006 97.313 42.0853 97.0517 42.244C96.7903 42.3933 96.585 42.6033 96.4357 42.874C96.2863 43.1446 96.2117 43.4573 96.2117 43.812C96.2117 44.1666 96.2863 44.484 96.4357 44.764C96.585 45.0346 96.7903 45.2493 97.0517 45.408C97.313 45.5573 97.6117 45.632 97.9477 45.632ZM105.582 47.34C104.966 47.34 104.411 47.186 103.916 46.878C103.422 46.57 103.034 46.15 102.754 45.618C102.474 45.086 102.334 44.4886 102.334 43.826C102.334 43.154 102.474 42.552 102.754 42.02C103.034 41.488 103.422 41.068 103.916 40.76C104.411 40.452 104.966 40.298 105.582 40.298C106.068 40.298 106.502 40.396 106.884 40.592C107.267 40.788 107.57 41.0633 107.794 41.418C108.028 41.7633 108.154 42.1553 108.172 42.594V45.03C108.154 45.478 108.028 45.8746 107.794 46.22C107.57 46.5653 107.267 46.8406 106.884 47.046C106.502 47.242 106.068 47.34 105.582 47.34ZM105.918 45.646C106.432 45.646 106.847 45.478 107.164 45.142C107.482 44.7966 107.64 44.3533 107.64 43.812C107.64 43.4573 107.566 43.1446 107.416 42.874C107.276 42.594 107.076 42.3793 106.814 42.23C106.562 42.0713 106.264 41.992 105.918 41.992C105.582 41.992 105.284 42.0713 105.022 42.23C104.77 42.3793 104.57 42.594 104.42 42.874C104.28 43.1446 104.21 43.4573 104.21 43.812C104.21 44.176 104.28 44.498 104.42 44.778C104.57 45.0486 104.77 45.2633 105.022 45.422C105.284 45.5713 105.582 45.646 105.918 45.646ZM107.542 47.2V45.38L107.836 43.728L107.542 42.104V40.438H109.362V47.2H107.542ZM110.985 47.2V40.438H112.819V47.2H110.985ZM112.819 43.462L112.105 42.986C112.189 42.1553 112.432 41.502 112.833 41.026C113.234 40.5406 113.813 40.298 114.569 40.298C114.896 40.298 115.19 40.354 115.451 40.466C115.712 40.5686 115.95 40.7413 116.165 40.984L115.017 42.3C114.914 42.188 114.788 42.104 114.639 42.048C114.499 41.992 114.336 41.964 114.149 41.964C113.757 41.964 113.435 42.09 113.183 42.342C112.94 42.5846 112.819 42.958 112.819 43.462ZM119.474 47.34C118.848 47.34 118.288 47.186 117.794 46.878C117.299 46.57 116.907 46.15 116.618 45.618C116.338 45.086 116.198 44.4886 116.198 43.826C116.198 43.154 116.338 42.552 116.618 42.02C116.907 41.488 117.294 41.068 117.78 40.76C118.274 40.452 118.839 40.298 119.474 40.298C119.959 40.298 120.393 40.396 120.776 40.592C121.168 40.788 121.48 41.0633 121.714 41.418C121.956 41.7633 122.087 42.1553 122.106 42.594V45.002C122.087 45.4406 121.961 45.8373 121.728 46.192C121.494 46.5466 121.182 46.8266 120.79 47.032C120.398 47.2373 119.959 47.34 119.474 47.34ZM119.782 45.646C120.127 45.646 120.426 45.5713 120.678 45.422C120.939 45.2633 121.14 45.0486 121.28 44.778C121.429 44.498 121.504 44.176 121.504 43.812C121.504 43.4573 121.429 43.1446 121.28 42.874C121.14 42.594 120.939 42.3793 120.678 42.23C120.426 42.0713 120.132 41.992 119.796 41.992C119.45 41.992 119.147 42.0713 118.886 42.23C118.634 42.3886 118.433 42.6033 118.284 42.874C118.144 43.1446 118.074 43.4573 118.074 43.812C118.074 44.176 118.144 44.498 118.284 44.778C118.433 45.0486 118.638 45.2633 118.9 45.422C119.161 45.5713 119.455 45.646 119.782 45.646ZM123.226 47.2H121.406V45.38L121.7 43.728L121.392 42.104V37.078H123.226V47.2ZM129.179 43.546V41.992H131.461C131.759 41.992 132.03 41.9313 132.273 41.81C132.515 41.6886 132.707 41.516 132.847 41.292C132.987 41.0586 133.057 40.7786 133.057 40.452C133.057 40.1346 132.987 39.8593 132.847 39.626C132.707 39.3926 132.515 39.2153 132.273 39.094C132.03 38.9726 131.759 38.912 131.461 38.912H129.179V37.358H131.657C132.282 37.358 132.842 37.484 133.337 37.736C133.841 37.988 134.237 38.3473 134.527 38.814C134.816 39.2713 134.961 39.8173 134.961 40.452C134.961 41.0866 134.816 41.6373 134.527 42.104C134.237 42.5613 133.841 42.916 133.337 43.168C132.842 43.42 132.282 43.546 131.657 43.546H129.179ZM127.779 47.2V37.358H129.683V47.2H127.779ZM138.723 47.34C138.107 47.34 137.552 47.186 137.057 46.878C136.562 46.57 136.175 46.15 135.895 45.618C135.615 45.086 135.475 44.4886 135.475 43.826C135.475 43.154 135.615 42.552 135.895 42.02C136.175 41.488 136.562 41.068 137.057 40.76C137.552 40.452 138.107 40.298 138.723 40.298C139.208 40.298 139.642 40.396 140.025 40.592C140.408 40.788 140.711 41.0633 140.935 41.418C141.168 41.7633 141.294 42.1553 141.313 42.594V45.03C141.294 45.478 141.168 45.8746 140.935 46.22C140.711 46.5653 140.408 46.8406 140.025 47.046C139.642 47.242 139.208 47.34 138.723 47.34ZM139.059 45.646C139.572 45.646 139.988 45.478 140.305 45.142C140.622 44.7966 140.781 44.3533 140.781 43.812C140.781 43.4573 140.706 43.1446 140.557 42.874C140.417 42.594 140.216 42.3793 139.955 42.23C139.703 42.0713 139.404 41.992 139.059 41.992C138.723 41.992 138.424 42.0713 138.163 42.23C137.911 42.3793 137.71 42.594 137.561 42.874C137.421 43.1446 137.351 43.4573 137.351 43.812C137.351 44.176 137.421 44.498 137.561 44.778C137.71 45.0486 137.911 45.2633 138.163 45.422C138.424 45.5713 138.723 45.646 139.059 45.646ZM140.683 47.2V45.38L140.977 43.728L140.683 42.104V40.438H142.503V47.2H140.683ZM148.675 47.2V43.322C148.675 42.9206 148.549 42.594 148.297 42.342C148.045 42.09 147.719 41.964 147.317 41.964C147.056 41.964 146.823 42.02 146.617 42.132C146.412 42.244 146.249 42.4026 146.127 42.608C146.015 42.8133 145.959 43.0513 145.959 43.322L145.245 42.958C145.245 42.426 145.357 41.964 145.581 41.572C145.815 41.1706 146.132 40.858 146.533 40.634C146.944 40.41 147.406 40.298 147.919 40.298C148.414 40.298 148.857 40.424 149.249 40.676C149.641 40.9186 149.949 41.2406 150.173 41.642C150.397 42.034 150.509 42.4586 150.509 42.916V47.2H148.675ZM144.125 47.2V40.438H145.959V47.2H144.125ZM155.221 47.34C154.511 47.34 153.881 47.1906 153.331 46.892C152.78 46.584 152.341 46.164 152.015 45.632C151.697 45.1 151.539 44.4933 151.539 43.812C151.539 43.14 151.693 42.5426 152.001 42.02C152.318 41.488 152.747 41.068 153.289 40.76C153.83 40.4426 154.432 40.284 155.095 40.284C155.748 40.284 156.322 40.4333 156.817 40.732C157.321 41.0213 157.713 41.4226 157.993 41.936C158.282 42.44 158.427 43.014 158.427 43.658C158.427 43.7793 158.417 43.9053 158.399 44.036C158.389 44.1573 158.366 44.2973 158.329 44.456L152.645 44.47V43.098L157.475 43.084L156.733 43.658C156.714 43.2566 156.639 42.9206 156.509 42.65C156.387 42.3793 156.205 42.174 155.963 42.034C155.729 41.8846 155.44 41.81 155.095 41.81C154.731 41.81 154.413 41.894 154.143 42.062C153.872 42.2206 153.662 42.4493 153.513 42.748C153.373 43.0373 153.303 43.3826 153.303 43.784C153.303 44.1946 153.377 44.554 153.527 44.862C153.685 45.1606 153.909 45.394 154.199 45.562C154.488 45.7206 154.824 45.8 155.207 45.8C155.552 45.8 155.865 45.744 156.145 45.632C156.425 45.5106 156.667 45.3333 156.873 45.1L157.951 46.178C157.624 46.5606 157.223 46.85 156.747 47.046C156.28 47.242 155.771 47.34 155.221 47.34ZM159.561 47.2V37.078H161.395V47.2H159.561Z" fill="#4B5563"/>
</svg>
